# xmcd
#
# Track frame offsets: 
#        150
#        15450
#        32550
#        56100
#        70650
#        85800
#        111225
#        129750
#        148725
#        172050
#        191175
#        210600
#        233625
#        247575
#        261450
#        285600
#
# Disc length: 4105 seconds
#
# Revision: 2
# Processed by: cddbd v1.5.2PL0 Copyright (c) Steve Scherf et al.
# Submitted via: ExactAudioCopy v0.95b4
#
DISCID=e1100710
DTITLE=Various Artist - The Bluesmen
DYEAR=1900
DGENRE=Blues
TTITLE0=Jimmy Reed - Down At The Corner Grocery Store
TTITLE1=John Lee Hooker - Goin' Mad Blues
TTITLE2=Muddy Waters - Dust My Broom (Live)
TTITLE3=Billy Boy Arnold With Tony McPhee - I Wish You Would
TTITLE4=Lousiana Red - Your Gonna Need Me, Baby
TTITLE5=Eddie Clearwater - Mayor Daley's Blues
TTITLE6=Byther Smith - Come On In This House
TTITLE7=Clarence Edwards - Still A Fool
TTITLE8=Buddy Guy and Junior Wells - In My Younger Days (Live)
TTITLE9=Sunnyland Slim - Soft And Mellow Stella
TTITLE10=Fenton Robinson - Somebody Loan me A Dime
TTITLE11=Bo Diddley - Mona (Live)
TTITLE12=King Buscuit Boy With The Bonnie Hawkins Band - Neighbour Nei
TTITLE12=ghbour
TTITLE13=Lightnin' Hopkins - War Is Starting Again
TTITLE14=Jimmy Johnson - When My First Wife Quit Me
TTITLE15=Magic Slim - Ship Made Of Paper
EXTD=
EXTT0=
EXTT1=
EXTT2=
EXTT3=
EXTT4=
EXTT5=
EXTT6=
EXTT7=
EXTT8=
EXTT9=
EXTT10=
EXTT11=
EXTT12=
EXTT13=
EXTT14=
EXTT15=
PLAYORDER=
